<svg width="23" height="17" viewBox="0 0 23 17" fill="none" xmlns="http://www.w3.org/2000/svg">
<path d="M7.65217 0.5C6.28243 0.5 5.18957 1.50243 4.95652 2.8047C3.64174 3.13583 2.50017 3.99217 2 5.348H1.97843L0.500174 9.50035C0.172981 10.1629 0.00188148 10.8915 0 11.6304C0 14.3122 2.18783 16.5 4.86957 16.5C7.28557 16.5 9.29878 14.7261 9.67374 12.413C10.0601 12.7999 10.5836 13.0187 11.1304 13.0217C11.696 13.0217 12.2087 12.7852 12.5871 12.413C12.9621 14.7254 14.9753 16.5 17.3913 16.5C20.073 16.5 22.2609 14.3122 22.2609 11.6304C22.2609 10.9536 22.1217 10.3045 21.8692 9.71739L20.2831 5.28261L20.2609 5.26104V5.23948C19.753 4.00539 18.6275 3.14417 17.3043 2.8047C17.0706 1.50174 15.9784 0.5 14.6087 0.5C13.3183 0.5 12.2692 1.39391 11.9562 2.58696H10.304C9.99235 1.39391 8.94261 0.5 7.65217 0.5ZM7.65217 1.8913C8.4807 1.8913 9.04348 2.45409 9.04348 3.28261V3.97826H13.2174V3.28261C13.2174 2.45409 13.7802 1.8913 14.6087 1.8913C15.4372 1.8913 16 2.45409 16 3.28261V3.91287L16.6303 3.97826C17.6633 4.08678 18.5544 4.80678 18.9565 5.73896C18.9621 5.75287 18.9725 5.76887 18.9781 5.78278L19.4998 7.26104C18.844 6.9367 18.123 6.76566 17.3913 6.76087C15.3558 6.76087 13.6167 8.02417 12.8911 9.80435C12.7009 9.51058 12.44 9.26914 12.1325 9.10206C11.8249 8.93498 11.4804 8.84758 11.1304 8.84783C10.4 8.84783 9.74191 9.22557 9.36974 9.80435C8.64417 8.02417 6.90504 6.76087 4.86957 6.76087C4.12522 6.76087 3.41565 6.93757 2.78261 7.23948L3.30435 5.82591V5.80435C3.70922 4.72817 4.56278 4.08957 5.63061 3.97826L6.26087 3.91287V3.28261C6.26087 2.45409 6.82365 1.8913 7.65217 1.8913ZM4.86957 8.15217C6.79861 8.15217 8.34783 9.70139 8.34783 11.6304C8.34783 13.5595 6.79861 15.1087 4.86957 15.1087C2.94052 15.1087 1.3913 13.5595 1.3913 11.6304C1.3913 11.1386 1.51374 10.6843 1.696 10.2607C1.70643 10.2336 1.70643 10.2009 1.71687 10.1737C1.99318 9.56993 2.4373 9.05831 2.99629 8.69988C3.55527 8.34145 4.20554 8.15133 4.86957 8.15217V8.15217ZM17.3913 8.15217C19.3203 8.15217 20.8696 9.70139 20.8696 11.6304C20.8696 13.5595 19.3203 15.1087 17.3913 15.1087C15.4623 15.1087 13.913 13.5595 13.913 11.6304C13.913 9.70139 15.4623 8.15217 17.3913 8.15217ZM11.1304 10.2391C11.5221 10.2391 11.8261 10.5438 11.8261 10.9348C11.8261 11.3264 11.5214 11.6304 11.1304 11.6304C10.7388 11.6304 10.4348 11.3257 10.4348 10.9348C10.4348 10.5431 10.7395 10.2391 11.1304 10.2391Z" fill="#121212"/>
</svg>
